<?xml version="1.0" encoding="UTF-8" standalone="no"?>
<!-- Created with Inkscape (http://www.inkscape.org/) -->
<svg id="svg2" xmlns:rdf="http://www.w3.org/1999/02/22-rdf-syntax-ns#" xmlns="http://www.w3.org/2000/svg" viewBox="0 0 200 200" version="1.1" xmlns:cc="http://creativecommons.org/ns#" xmlns:dc="http://purl.org/dc/elements/1.1/">
 <metadata id="metadata7">
  <rdf:RDF>
   <cc:Work rdf:about="">
    <dc:format>image/svg+xml</dc:format>
    <dc:type rdf:resource="http://purl.org/dc/dcmitype/StillImage"/>
    <dc:title/>
   </cc:Work>
  </rdf:RDF>
 </metadata>
 <g id="layer1" transform="translate(0,-852.36218)">
  <rect id="rect2985" opacity="0.98673" style="enable-background:accumulate;color:#000000;" fill-rule="nonzero" transform="translate(0,852.36218)" height="200" width="200" y="0" x="0" fill="#f2f2f2"/>
 </g>
 <g id="layer2" fill-rule="nonzero" class="filterTarget">
  <path id="path2988" opacity="0.98672569" style="enable-background:accumulate;color:#000000;" transform="translate(230.46358,54.039735)" fill="#00F" d="m-110.73,68.079c-33.907,20.132-5.0419,19.78-39.431,0.48157s-19.651,5.5235-20.132-33.907c-0.48157-39.431-14.609-14.256,19.298-34.389,33.907-20.132,5.0419-19.78,39.431-0.48157s19.651-5.5235,20.132,33.907c0.48157,39.431,14.609,14.256-19.298,34.389z"/>
  <path id="path2990" opacity="0.98672569" style="enable-background:accumulate;color:#000000;" d="m-110.73,68.079c-33.907,20.132-5.0419,19.78-39.431,0.48157s-19.651,5.5235-20.132-33.907c-0.48157-39.431-14.609-14.256,19.298-34.389,33.907-20.132,5.0419-19.78,39.431-0.48157s19.651-5.5235,20.132,33.907c0.48157,39.431,14.609,14.256-19.298,34.389z" transform="matrix(0.47954212,0,0,0.47954212,162.35597,71.824919)" fill="#FFF"/>
 </g>
</svg>
