<?xml version="1.0" encoding="UTF-8" standalone="no"?>
<!-- Created with Inkscape (http://www.inkscape.org/) -->
<svg id="svg2" xmlns:rdf="http://www.w3.org/1999/02/22-rdf-syntax-ns#" xmlns="http://www.w3.org/2000/svg" viewBox="0 0 200 200" version="1.1" xmlns:cc="http://creativecommons.org/ns#" xmlns:dc="http://purl.org/dc/elements/1.1/">
 <metadata id="metadata7">
  <rdf:RDF>
   <cc:Work rdf:about="">
    <dc:format>image/svg+xml</dc:format>
    <dc:type rdf:resource="http://purl.org/dc/dcmitype/StillImage"/>
    <dc:title/>
   </cc:Work>
  </rdf:RDF>
 </metadata>
 <g id="layer1" transform="translate(0,-852.36218)">
  <rect id="rect2985" opacity="0.98673" style="enable-background:accumulate;color:#000000;" fill-rule="nonzero" transform="translate(0,852.36218)" height="200" width="200" y="0" x="0" fill="#f2f2f2"/>
 </g>
 <g id="layer2" fill-rule="nonzero" class="filterTarget">
  <path id="path2992" opacity="0.98672569" style="enable-background:accumulate;color:#000000;" d="m-84.768,51.126a41.854,39.735,0,1,1,-83.709,0,41.854,39.735,0,1,1,83.709,0z" transform="matrix(1.7541709,0,0,1.7541709,322.11753,10.316559)" fill="#800000"/>
  <rect id="rect3044" opacity="0.98673" style="enable-background:accumulate;color:#000000;" height="37.058" width="14.411" y="42.612" x="92.794" fill="#2b0000"/>
  <rect id="rect3046" opacity="0.98673" style="enable-background:accumulate;color:#000000;" height="37.058" width="14.411" y="120.33" x="92.794" fill="#2b0000"/>
  <rect id="rect3048" opacity="0.98673" style="enable-background:accumulate;color:#000000;" transform="matrix(0.70710678,0.70710678,-0.70710678,0.70710678,0,0)" height="37.058" width="14.411" y="-57.388" x="134.22" fill="#2b0000"/>
  <rect id="rect3050" opacity="0.98673" style="enable-background:accumulate;color:#000000;" transform="matrix(0.70710678,0.70710678,-0.70710678,0.70710678,0,0)" height="37.058" width="14.411" y="20.33" x="134.22" fill="#2b0000"/>
  <rect id="rect3052" opacity="0.98673" style="enable-background:accumulate;color:#000000;" transform="matrix(0,1,-1,0,0,0)" height="37.058" width="14.411" y="-157.39" x="92.794" fill="#2b0000"/>
  <rect id="rect3054" opacity="0.98673" style="enable-background:accumulate;color:#000000;" transform="matrix(0,1,-1,0,0,0)" height="37.058" width="14.411" y="-79.67" x="92.794" fill="#2b0000"/>
  <rect id="rect3056" opacity="0.98673" style="enable-background:accumulate;color:#000000;" transform="matrix(-0.70710678,0.70710678,-0.70710678,-0.70710678,0,0)" height="37.058" width="14.411" y="-198.81" x="-7.2057" fill="#2b0000"/>
  <rect id="rect3058" opacity="0.98673" style="enable-background:accumulate;color:#000000;" transform="matrix(-0.70710678,0.70710678,-0.70710678,-0.70710678,0,0)" height="37.058" width="14.411" y="-121.09" x="-7.2057" fill="#2b0000"/>
  <rect id="rect3060" opacity="0.98673" style="enable-background:accumulate;color:#000000;" height="37.058" width="14.411" y="42.612" x="92.794" fill="#FFF"/>
  <rect id="rect3062" opacity="0.98673" style="enable-background:accumulate;color:#000000;" height="37.058" width="14.411" y="120.33" x="92.794" fill="#FFF"/>
  <rect id="rect3064" opacity="0.98673" style="enable-background:accumulate;color:#000000;" transform="matrix(0.70710678,0.70710678,-0.70710678,0.70710678,0,0)" height="37.058" width="14.411" y="-57.388" x="134.22" fill="#FFF"/>
  <rect id="rect3066" opacity="0.98673" style="enable-background:accumulate;color:#000000;" transform="matrix(0.70710678,0.70710678,-0.70710678,0.70710678,0,0)" height="37.058" width="14.411" y="20.33" x="134.22" fill="#FFF"/>
  <rect id="rect3068" opacity="0.98673" style="enable-background:accumulate;color:#000000;" transform="matrix(0,1,-1,0,0,0)" height="37.058" width="14.411" y="-157.39" x="92.794" fill="#FFF"/>
  <rect id="rect3070" opacity="0.98673" style="enable-background:accumulate;color:#000000;" transform="matrix(0,1,-1,0,0,0)" height="37.058" width="14.411" y="-79.67" x="92.794" fill="#FFF"/>
  <rect id="rect3072" opacity="0.98673" style="enable-background:accumulate;color:#000000;" transform="matrix(-0.70710678,0.70710678,-0.70710678,-0.70710678,0,0)" height="37.058" width="14.411" y="-198.81" x="-7.2057" fill="#FFF"/>
  <rect id="rect3074" opacity="0.98673" style="enable-background:accumulate;color:#000000;" transform="matrix(-0.70710678,0.70710678,-0.70710678,-0.70710678,0,0)" height="37.058" width="14.411" y="-121.09" x="-7.2057" fill="#FFF"/>
  <rect id="rect2994" opacity="0.98673" style="enable-background:accumulate;color:#000000;" height="33.457" width="13.011" y="48.188" x="93.494" fill="#000"/>
  <rect id="rect2996" opacity="0.98673" style="enable-background:accumulate;color:#000000;" height="33.457" width="13.011" y="118.35" x="93.494" fill="#000"/>
  <rect id="rect3004" opacity="0.98673" style="enable-background:accumulate;color:#000000;" transform="matrix(0.70710678,0.70710678,-0.70710678,0.70710678,0,0)" height="33.457" width="13.011" y="-51.812" x="134.92" fill="#000"/>
  <rect id="rect3006" opacity="0.98673" style="enable-background:accumulate;color:#000000;" transform="matrix(0.70710678,0.70710678,-0.70710678,0.70710678,0,0)" height="33.457" width="13.011" y="18.355" x="134.92" fill="#000"/>
  <rect id="rect3010" opacity="0.98673" style="enable-background:accumulate;color:#000000;" transform="matrix(0,1,-1,0,0,0)" height="33.457" width="13.011" y="-151.81" x="93.494" fill="#000"/>
  <rect id="rect3012" opacity="0.98673" style="enable-background:accumulate;color:#000000;" transform="matrix(0,1,-1,0,0,0)" height="33.457" width="13.011" y="-81.645" x="93.494" fill="#000"/>
  <rect id="rect3016" opacity="0.98673" style="enable-background:accumulate;color:#000000;" transform="matrix(-0.70710678,0.70710678,-0.70710678,-0.70710678,0,0)" height="33.457" width="13.011" y="-193.23" x="-6.5056" fill="#000"/>
  <rect id="rect3018" opacity="0.98673" style="enable-background:accumulate;color:#000000;" transform="matrix(-0.70710678,0.70710678,-0.70710678,-0.70710678,0,0)" height="33.457" width="13.011" y="-123.07" x="-6.5056" fill="#000"/>
  <rect id="rect3028" opacity="0.98673" style="enable-background:accumulate;color:#000000;" height="33.457" width="13.011" y="48.188" x="93.494" fill="#000"/>
  <rect id="rect3030" opacity="0.98673" style="enable-background:accumulate;color:#000000;" height="33.457" width="13.011" y="118.35" x="93.494" fill="#000"/>
  <rect id="rect3032" opacity="0.98673" style="enable-background:accumulate;color:#000000;" transform="matrix(0.70710678,0.70710678,-0.70710678,0.70710678,0,0)" height="33.457" width="13.011" y="-51.812" x="134.92" fill="#000"/>
  <rect id="rect3034" opacity="0.98673" style="enable-background:accumulate;color:#000000;" transform="matrix(0.70710678,0.70710678,-0.70710678,0.70710678,0,0)" height="33.457" width="13.011" y="18.355" x="134.92" fill="#000"/>
  <rect id="rect3036" opacity="0.98673" style="enable-background:accumulate;color:#000000;" transform="matrix(0,1,-1,0,0,0)" height="33.457" width="13.011" y="-151.81" x="93.494" fill="#000"/>
  <rect id="rect3038" opacity="0.98673" style="enable-background:accumulate;color:#000000;" transform="matrix(0,1,-1,0,0,0)" height="33.457" width="13.011" y="-81.645" x="93.494" fill="#000"/>
  <rect id="rect3040" opacity="0.98673" style="enable-background:accumulate;color:#000000;" transform="matrix(-0.70710678,0.70710678,-0.70710678,-0.70710678,0,0)" height="33.457" width="13.011" y="-193.23" x="-6.5056" fill="#000"/>
  <rect id="rect3042" opacity="0.98673" style="enable-background:accumulate;color:#000000;" transform="matrix(-0.70710678,0.70710678,-0.70710678,-0.70710678,0,0)" height="33.457" width="13.011" y="-123.07" x="-6.5056" fill="#000"/>
 </g>
</svg>
